# xmcd CD database file
# Copyright (C) 1993-1998 Ti Kan
#
# Track frame offsets:
#	150
#	21095
#	47635
#	79415
#	94329
#	115137
#	137480
#	163585
#	183870
#	204585
#	227120
#	258437
#
# Disc length: 3788 seconds
#
# Revision: 1
# Processed by: cddbd v1.4b41PL1 Copyright (c) Steve Scherf et al.
# Submitted via: CDValet v3.31 - Copyright (c) 1997 Greg Leichner
#
DISCID=9c0eca0c
DTITLE=Korla Wygal - Perfectly Korla
DYEAR=1900
DGENRE=
TTITLE0=Body Heat
TTITLE1=Damn Your Eyes
TTITLE2=I Believe
TTITLE3=You Don't Need Her
TTITLE4=Woman
TTITLE5=Separate Way
TTITLE6=Bright Eyes
TTITLE7=Can't Live Without You
TTITLE8=This Time
TTITLE9=Bad Ain't So Good
TTITLE10=A Place
TTITLE11=Should've Been Me
EXTD=So many times you and I would sit and talk about my dreams
EXTD=To you they were never too unreal or too far away. Sacri
EXTD=fice was your first name and you never complained (unless 
EXTD=I wasn't rehearsing).Whatever I needed to do to climb thos
EXTD=e stairs to my dreams, believe me, you were right there to
EXTD=make it a lot easier.\n   Mom, I took for granted that yo
EXTD=u'd always be here to share my dreams. I wish you were her
EXTD=e now, but I know you went your SEPARATE WAY once again to
EXTD=make it a lot easier. I will always love you and I dedica
EXTD=te "Perfectly Korla" to my "Perfect Mother".
EXTT0=
EXTT1=
EXTT2=
EXTT3=
EXTT4=
EXTT5=
EXTT6=
EXTT7=
EXTT8=
EXTT9=
EXTT10=
EXTT11=
PLAYORDER=
